<?xml version="1.0" ?><!DOCTYPE svg  PUBLIC '-//W3C//DTD SVG 1.1//EN'  'http://www.w3.org/Graphics/SVG/1.1/DTD/svg11.dtd'><svg xmlns="http://www.w3.org/2000/svg" xmlns:xlink="http://www.w3.org/1999/xlink" version="1.1" id="Layer_1" width="512px" height="512px" viewBox="0 0 512 512" enable-background="new 0 0 512 512" xml:space="preserve"><g><path fill-rule="evenodd" clip-rule="evenodd" fill="#F5ACCC" d="M466.207,45.79c43.822,43.823,43.822,114.905,0,158.729   l-298.37,298.366L9.115,344.16L307.482,45.79C351.306,1.967,422.385,1.967,466.207,45.79L466.207,45.79z M428.403,104.5h-0.039   c0-5.342-2.039-10.683-6.108-14.756l-0.003-0.003l0.018-0.018c-4.069-4.058-9.415-6.088-14.769-6.088   c-5.178,0-10.35,1.903-14.365,5.7c-0.123,0.141-0.255,0.275-0.387,0.406v0.003c-4.069,4.073-6.115,9.414-6.115,14.756h-0.032   c0,5.315,2.048,10.658,6.147,14.753c4.069,4.072,9.412,6.11,14.752,6.11c5.342,0,10.684-2.038,14.754-6.11   C426.353,115.158,428.403,109.815,428.403,104.5z"/><g><path fill="#5B57A4" d="M509.332,2.669c-3.558-3.559-9.33-3.559-12.892,0l-30.473,30.47c-22.69-19.552-50.902-29.33-79.123-29.33    c-31.054,0-62.113,11.846-85.807,35.537L2.671,337.715c-3.561,3.561-3.561,9.332,0,12.895l158.722,158.723    c3.563,3.558,9.334,3.558,12.897,0l298.367-298.369c23.69-23.691,35.534-54.752,35.534-85.808    c0-28.218-9.777-56.434-29.326-79.124l30.467-30.471C512.89,12,512.89,6.229,509.332,2.669z M489.963,125.155    c0,26.393-10.07,52.787-30.197,72.915L167.837,489.994L22.01,344.16L313.927,52.236c20.133-20.128,46.53-30.196,72.918-30.196    c23.547,0,47.093,8.013,66.192,24.036l-25.104,25.102c-6.253-3.847-13.341-5.523-20.432-5.523    c-21.531,0-39.095,17.346-39.095,39.346h0.036c0,21,17.596,39.096,39.059,39.096c21.465,0,39.061-18.096,39.061-39.096h0.036    c0-8-1.923-14.441-5.762-20.692l25.089-25.218C481.949,78.188,489.963,101.609,489.963,125.155z M428.403,105    c0,11-9.486,20.863-20.901,20.863c-11.419,0-20.899-9.863-20.899-20.863h0.032c0-12,9.37-20.865,20.867-20.865    c11.511,0,20.862,8.865,20.862,20.865H428.403z"/><path fill="#5B57A4" d="M179.168,365.405c-3.264-3.264-6.591-5.603-10.028-7.018c-3.414-1.4-6.849-2.171-10.26-2.318    c-3.414-0.155-6.813,0.192-10.182,0.987c-3.372,0.834-6.654,1.845-9.831,3.002c-3.198,1.183-6.295,2.34-9.305,3.547    c-2.979,1.224-5.815,2.126-8.498,2.744c-2.687,0.623-5.198,0.773-7.492,0.449c-2.321-0.34-4.382-1.413-6.185-3.219    c-1.206-1.201-2.126-2.597-2.794-4.119c-0.644-1.547-0.901-3.137-0.77-4.811c0.126-1.674,0.62-3.415,1.543-5.195    c0.886-1.782,2.233-3.564,4.039-5.37c2.318-2.32,4.705-4.146,7.217-5.495c2.489-1.376,4.807-2.447,6.978-3.199    c2.165-0.795,4.034-1.375,5.621-1.805c1.59-0.431,2.623-0.86,3.094-1.332c0.448-0.449,0.688-0.943,0.712-1.484    c0.039-0.512-0.155-1.136-0.56-1.804c-0.41-0.708-0.991-1.499-1.761-2.401c-0.775-0.903-1.785-1.956-2.985-3.158    c-1.097-1.098-2.037-1.996-2.791-2.704c-0.779-0.688-1.465-1.202-2.061-1.589c-0.581-0.365-1.075-0.641-1.524-0.795    c-0.455-0.148-1.072-0.211-1.935-0.211c-0.817,0-2.21,0.319-4.145,1.006c-1.935,0.689-3.991,1.589-6.162,2.771    c-2.192,1.157-4.382,2.576-6.612,4.21c-2.234,1.632-4.291,3.432-6.205,5.344c-3.734,3.734-6.807,7.75-9.169,12.045    c-2.36,4.297-3.798,8.655-4.295,13.056c-0.532,4.4-0.021,8.828,1.479,13.205c1.527,4.4,4.231,8.564,8.121,12.457    c3.412,3.412,6.804,5.817,10.263,7.256c3.435,1.415,6.846,2.21,10.244,2.386c3.408,0.146,6.756-0.156,10.113-0.926    c3.3-0.772,6.591-1.737,9.789-2.918c3.156-1.184,6.247-2.344,9.211-3.502c2.941-1.139,5.756-2.019,8.392-2.599    c2.623-0.6,5.111-0.731,7.453-0.408c2.317,0.301,4.402,1.396,6.25,3.243c1.587,1.587,2.746,3.303,3.458,5.217    c0.729,1.893,0.94,3.82,0.729,5.797c-0.234,1.999-0.901,4.035-1.998,6.119c-1.114,2.063-2.683,4.104-4.704,6.121    c-3.066,3.066-6.101,5.411-9.121,7.063c-3.01,1.634-5.777,2.858-8.286,3.695c-2.54,0.855-4.687,1.459-6.421,1.824    c-1.767,0.387-2.946,0.882-3.527,1.46c-0.426,0.428-0.682,0.899-0.752,1.438c-0.084,0.562,0.045,1.202,0.393,1.935    c0.359,0.706,0.946,1.588,1.736,2.551c0.814,0.946,1.845,2.063,3.153,3.375c1.935,1.935,3.528,3.308,4.792,4.1    c1.222,0.795,2.404,1.202,3.497,1.182c1.097,0.021,2.62-0.258,4.558-0.775c1.971-0.514,4.181-1.397,6.693-2.571    c2.491-1.202,5.175-2.772,8.031-4.729c2.881-1.93,5.714-4.339,8.528-7.147c4.139-4.145,7.511-8.591,10.068-13.334    c2.557-4.748,4.12-9.533,4.681-14.431c0.577-4.872,0.042-9.747-1.588-14.555C186.406,374.231,183.441,369.679,179.168,365.405z"/><path fill="#5B57A4" d="M257.884,288.449c-3.647-7.001-8.844-13.871-15.59-20.613c-7.062-7.062-13.955-12.369-20.762-15.912    c-6.807-3.583-13.461-5.474-20.055-5.71c-6.546-0.238-13.012,1.202-19.348,4.271c-6.352,3.095-12.599,7.71-18.785,13.895    c-6.441,6.44-11.164,13.096-14.068,19.947c-2.917,6.869-4.181,13.808-3.797,20.807c0.386,6.996,2.365,13.956,5.95,20.89    c3.561,6.957,8.648,13.72,15.242,20.311c7.175,7.179,14.173,12.588,20.979,16.256c6.81,3.672,13.479,5.63,20.052,5.89    c6.531,0.254,12.994-1.142,19.369-4.211c6.375-3.07,12.709-7.775,19.046-14.11c6.42-6.419,11.104-13.03,14.041-19.881    c2.923-6.831,4.187-13.765,3.8-20.768C263.576,302.473,261.534,295.45,257.884,288.449z M240.901,323.555    c-1.222,4.234-3.842,8.399-7.902,12.456c-4.082,4.078-8.119,6.784-12.132,8.138c-3.994,1.371-8.073,1.587-12.173,0.663    c-4.103-0.926-8.268-2.809-12.476-5.688c-4.21-2.878-8.549-6.528-12.993-10.974c-3.818-3.82-7.082-7.773-9.834-11.893    c-2.704-4.127-4.504-8.289-5.39-12.519c-0.878-4.233-0.707-8.48,0.457-12.734c1.198-4.25,3.84-8.439,7.897-12.498    c4.033-4.035,8.076-6.696,12.128-8.008c4.039-1.331,8.118-1.544,12.221-0.668c4.103,0.885,8.268,2.729,12.431,5.565    c4.171,2.833,8.396,6.377,12.69,10.67c3.888,3.889,7.235,7.921,9.984,12.091c2.77,4.143,4.62,8.352,5.543,12.626    C242.275,315.053,242.129,319.326,240.901,323.555z"/><path fill="#5B57A4" d="M333.17,252.763c-0.755-0.97-1.784-2.085-3.03-3.328c-1.267-1.27-2.359-2.279-3.327-3.031    c-0.967-0.753-1.803-1.288-2.555-1.609c-0.733-0.3-1.374-0.427-1.934-0.343c-0.513,0.085-1.027,0.343-1.438,0.75l-25.595,25.594    l-65.488-65.487c-0.41-0.407-0.946-0.646-1.543-0.687c-0.604-0.087-1.335,0.085-2.171,0.535c-0.838,0.409-1.848,1.073-3.03,1.999    c-1.18,0.921-2.575,2.189-4.204,3.82c-1.588,1.591-2.86,2.985-3.798,4.188c-0.952,1.204-1.635,2.234-2.045,3.071    c-0.431,0.814-0.599,1.543-0.542,2.168c0.045,0.605,0.303,1.116,0.713,1.523l73.93,73.932c1.845,1.845,3.65,2.704,5.411,2.576    c1.758-0.13,3.327-0.882,4.72-2.28l37.295-37.294c0.413-0.407,0.667-0.923,0.713-1.481c0.086-0.558-0.063-1.223-0.429-2.02    C334.476,254.586,333.916,253.727,333.17,252.763z"/><path fill="#5B57A4" d="M367.036,142.585c-6.466-6.461-13.06-11.25-19.759-14.341c-6.717-3.115-13.484-4.595-20.271-4.47    c-6.782,0.132-13.568,1.891-20.312,5.241c-6.744,3.351-13.761,8.656-21.022,15.912l-20.869,20.872    c-1.396,1.393-2.146,2.963-2.272,4.721c-0.132,1.764,0.73,3.563,2.572,5.411l70.965,70.967c1.845,1.846,3.65,2.704,5.412,2.575    c1.758-0.13,3.326-0.882,4.722-2.276l19.432-19.432c7.218-7.215,12.626-14.217,16.3-21.022c3.65-6.784,5.605-13.676,5.905-20.676    c0.297-7-1.245-14.132-4.6-21.389C379.892,157.426,374.48,150.036,367.036,142.585z M362.999,200.732    c-1.935,4.252-5.159,8.674-9.69,13.206l-8.609,8.611l-55.376-55.38l8.353-8.352c5.091-5.088,9.879-8.501,14.367-10.241    c4.483-1.783,8.954-2.424,13.354-1.974c4.426,0.43,8.765,1.846,12.973,4.252c4.228,2.426,8.243,5.54,12.106,9.403    c4.701,4.702,8.289,9.319,10.783,13.871c2.486,4.553,3.902,9.06,4.181,13.505C365.724,192.079,364.928,196.438,362.999,200.732z"/></g></g></svg>