<?xml version="1.0" ?><svg viewBox="0 0 64 64" xmlns="http://www.w3.org/2000/svg"><defs><style>.cls-1{fill:#dbeffc;}.cls-2{fill:none;}.cls-2,.cls-3,.cls-4,.cls-5,.cls-6,.cls-7,.cls-8,.cls-9{stroke:#4c241d;stroke-linecap:round;stroke-linejoin:round;stroke-width:2px;}.cls-3{fill:#fc8c29;}.cls-4{fill:#9dc1e4;}.cls-5{fill:#e7d1c4;}.cls-6{fill:#fff;}.cls-7{fill:#e2e2e2;}.cls-8{fill:#bd53b5;}.cls-9{fill:#e66353;}.cls-10{fill:#4c241d;}</style></defs><g id="wishlist"><circle class="cls-1" cx="38" cy="24" r="21"/><line class="cls-2" x1="41.5858" x2="44.4142" y1="5.0858" y2="7.9142"/><line class="cls-2" x1="44.4142" x2="41.5858" y1="5.0858" y2="7.9142"/><rect class="cls-3" height="23" width="7" x="46" y="26"/><path class="cls-4" d="M46,49h7a0,0,0,0,1,0,0v2.2321A2.7679,2.7679,0,0,1,50.2321,54H48.7679A2.7679,2.7679,0,0,1,46,51.2321V49A0,0,0,0,1,46,49Z"/><polygon class="cls-5" points="46 26 53 26 49.482 14 46 26"/><polygon class="cls-4" points="49.482 14 47.161 22 51.827 22 49.482 14"/><polygon class="cls-6" points="35 60 7 60 7 15 40 15 40 55 35 60"/><polygon class="cls-7" points="35 60 40 55 35 55 35 60"/><rect class="cls-8" height="8" rx="1.5" width="3" x="14" y="11"/><rect class="cls-8" height="8" rx="1.5" width="3" x="22" y="11"/><rect class="cls-8" height="8" rx="1.5" width="3" x="30" y="11"/><path class="cls-9" d="M25.4554,22.1667a2.6035,2.6035,0,0,0-1.8443.771,2.6033,2.6033,0,0,0-1.8443-.771,2.6989,2.6989,0,0,0-2.6557,2.74c0,2.2835,4.5,5.0932,4.5,5.0932s4.5-2.81,4.5-5.0932A2.6989,2.6989,0,0,0,25.4554,22.1667Z"/><line class="cls-2" x1="11" x2="12" y1="35" y2="35"/><line class="cls-2" x1="15" x2="31" y1="35" y2="35"/><line class="cls-2" x1="11" x2="12" y1="39" y2="39"/><line class="cls-2" x1="15" x2="24" y1="39" y2="39"/><line class="cls-2" x1="11" x2="12" y1="43" y2="43"/><line class="cls-2" x1="15" x2="21" y1="43" y2="43"/><line class="cls-2" x1="11" x2="12" y1="47" y2="47"/><line class="cls-2" x1="15" x2="37" y1="47" y2="47"/><line class="cls-2" x1="11" x2="12" y1="51" y2="51"/><line class="cls-2" x1="15" x2="29" y1="51" y2="51"/><line class="cls-2" x1="24" x2="34" y1="43" y2="43"/><circle class="cls-10" cx="53.0821" cy="9.0978" r="1.0691"/></g></svg>